# xmcd
#
# Track frame offsets: 
#        150
#        32261
#        59759
#        86685
#        111148
#        146794
#        163213
#        191226
#        217136
#        249362
#        265661
#        286023
#        312802
#        329203
#
# Disc length: 4718 seconds
#
# Revision: 0
# Processed by: cddbd v1.5.2PL0 Copyright (c) Steve Scherf et al.
# Submitted via: ExactAudioCopy v0.95b4
#
DISCID=d8126c0e
DTITLE=Various Artist - Poolposition 2005-01
DYEAR=2005
DGENRE=
TTITLE0=Voodoo and Serano - Blood is pumpin 2005 (Remake Mix)
TTITLE1=Voodoo and Serano - Blood is pumpin 2005 (Marc Aurel Mix)
TTITLE2=Picco - It goes on and on (Extended)
TTITLE3=Picco - Jump all around (club mix)
TTITLE4=DJ Peter Presta feat. Bonse - Totally hooked (Vocal mix)
TTITLE5=Clubgroovers - Warriors of love (Rob Mayth RMX Edit)
TTITLE6=Clubgroovers - Warriors of love (Rob Mayth RMX)
TTITLE7=Magic D - Someday (Alex Megane Club Mix)
TTITLE8=Mike Cain - Far away (Club Remix)
TTITLE9=Djenetix - Wings of tomorrow (radio)
TTITLE10=Djenetix - Wings of tomorrow (disco)
TTITLE11=DJ Skywalk - Message of love (extended mix)
TTITLE12=Djenetix - A matter of time (radio)
TTITLE13=Djenetix - A matter of time (club)
EXTD=
EXTT0=
EXTT1=
EXTT2=
EXTT3=
EXTT4=
EXTT5=
EXTT6=
EXTT7=
EXTT8=
EXTT9=
EXTT10=
EXTT11=
EXTT12=
EXTT13=
PLAYORDER=
